<svg xmlns="http://www.w3.org/2000/svg" width="1024" height="1024" viewBox="0 0 32 32">
  <rect x="0" y="0" width="32" height="32" rx="6" fill="#FB7299" />
  <g transform="translate(4, 4)">
    <path fill="white"
      d="m19.65 6.5l-2.74-3.54l3.93-.78l.78 3.92zm-2.94.57l-2.74-3.53l-1.97.39l2.75 3.53zM2 10v10a2 2 0 0 0 2 2h7v-2.87L20.13 10zm9.81-1.95L9.07 4.5l-1.97.41l2.75 3.53zM4.16 5.5l-.98.19a2.01 2.01 0 0 0-1.57 2.35L2 10l4.9-.97z" />
    <path fill="#00A1D6"
      d="M13 19.96V22h2.04l6.13-6.12l-2.04-2.05zm9.85-6.49l-1.32-1.32c-.2-.2-.53-.2-.72 0l-.98.98l2.04 2.04l.98-.98c.2-.19.2-.52 0-.72" />
  </g>
</svg>